<?xml version="1.0" encoding="UTF-8"?>
<svg width="155px" height="43px" viewBox="0 0 155 43" version="1.1" xmlns="http://www.w3.org/2000/svg" xmlns:xlink="http://www.w3.org/1999/xlink">
    <!-- Generator: Sketch 42 (36781) - http://www.bohemiancoding.com/sketch -->
    <title>Armory_logo</title>
    <desc>Created with Sketch.</desc>
    <defs></defs>
    <g id="Page-1" stroke="none" stroke-width="1" fill="none" fill-rule="evenodd">
        <g id="Guide-Page-B" transform="translate(-250.000000, -55.000000)">
            <g id="Armory_logo" transform="translate(250.000000, 55.000000)">
                <path d="M50.8439009,20.2152211 C50.3488975,19.9842968 49.1284007,19.6543427 47.4787754,19.6543427 C44.7737026,19.6543427 43.5529162,20.7430896 43.5529162,22.7553893 C43.5529162,25.0647778 44.9386073,25.8895904 46.8850319,25.8895904 C48.9632065,25.8895904 50.8439009,24.5700639 50.8439009,23.1183531 L50.8439009,20.2152211 Z M51.4374996,26.846153 L51.3386148,26.8132879 C50.1178284,28.3637388 48.1056735,29.2875811 45.7302652,29.2875811 C42.0354752,29.2875811 39.594192,27.2421268 39.594192,22.821409 C39.594192,19.0933196 42.1013502,16.6853357 46.7199825,16.6853357 C48.2704334,16.6853357 49.7219994,16.9491252 50.8439009,17.3122339 L50.8439009,15.8275132 C50.8439009,13.3532201 49.6562692,12.3635028 46.6869726,12.3635028 C44.5426335,12.3635028 42.9920378,12.6934568 41.1776527,13.4852596 L40.8148336,10.0212492 C42.7612583,9.16342667 44.9714724,8.73473258 47.4457655,8.73473258 C52.9880953,8.73473258 55.0005397,11.1099961 55.0005397,16.4542666 L55.0005397,28.9574823 L51.8004635,28.9574823 L51.4374996,26.846153 L51.4374996,26.846153 Z" id="Fill-1" fill="#49504E"></path>
                <path d="M58.1678955,28.9574823 L58.1678955,9.22944643 L61.5328763,9.03153193 L61.8956954,12.7593318 L61.994725,12.7593318 C63.2152219,10.1861538 65.2608209,8.80060756 67.7019594,8.80060756 C68.5267721,8.80060756 69.2525551,8.89949242 69.7804236,9.06454181 L69.5163445,13.3202102 C68.8894464,13.1222957 68.1640977,12.990401 67.4380252,12.990401 C64.5680478,12.990401 62.3576889,15.233625 62.3576889,18.9614248 L62.3576889,28.9574823 L58.1678955,28.9574823" id="Fill-2" fill="#49504E"></path>
                <path d="M94.5560754,28.9574823 L94.5560754,16.0584376 C94.5560754,13.6831741 93.2364041,12.594572 91.0591999,12.594572 C89.1456403,12.594572 87.6940743,13.6501642 87.6940743,15.8275132 L87.6940743,28.9574823 L83.5045705,28.9574823 L83.5045705,15.8275132 C83.5045705,13.4852596 82.1188794,12.5614173 80.1394449,12.5614173 C78.7208888,12.5614173 77.3023327,13.2873451 76.6095595,14.3759472 L76.6095595,28.9574823 L72.4197661,28.9574823 L72.4197661,9.19643655 L75.421783,8.99852205 L76.1477108,10.9779566 C77.5002472,9.59226554 79.3477869,8.76759768 81.2610569,8.76759768 C83.8343797,8.76759768 85.54988,9.69129518 86.5726071,11.6048547 C87.8261138,9.6582853 89.8054036,8.76759768 92.1806671,8.76759768 C96.0406512,8.76759768 98.7458688,11.1428612 98.7458688,15.9924178 L98.7458688,28.9574823 L94.5560754,28.9574823" id="Fill-3" fill="#49504E"></path>
                <path d="M110.457571,25.8895904 C113.723522,25.8895904 114.944164,24.3059849 114.944164,19.0933196 C114.944164,13.8810886 113.723522,12.2976278 110.457571,12.2976278 C107.158465,12.2976278 105.904959,13.8810886 105.904959,19.0933196 C105.904959,24.3059849 107.19162,25.8895904 110.457571,25.8895904 Z M110.457571,29.4194758 C104.321498,29.4194758 101.550261,26.450324 101.550261,19.0933196 C101.550261,11.7696146 104.321498,8.73473258 110.457571,8.73473258 C116.626799,8.73473258 119.265852,11.7696146 119.265852,19.0933196 C119.265852,26.450324 116.626799,29.4194758 110.457571,29.4194758 L110.457571,29.4194758 Z" id="Fill-4" fill="#49504E"></path>
                <path d="M122.367188,28.9574823 L122.367188,9.22944643 L125.732314,9.03153193 L126.094988,12.7593318 L126.194018,12.7593318 C127.414659,10.1861538 129.460258,8.80060756 131.901252,8.80060756 C132.726065,8.80060756 133.451848,8.89949242 133.979716,9.06454181 L133.715782,13.3202102 C133.088884,13.1222957 132.363246,12.990401 131.637463,12.990401 C128.767196,12.990401 126.557126,15.233625 126.557126,18.9614248 L126.557126,28.9574823 L122.367188,28.9574823" id="Fill-5" fill="#49504E"></path>
                <path d="M143.546935,28.9904922 L143.646109,28.6936928 L135.035598,9.09740691 L139.852145,9.09740691 L144.767577,22.2935405 L145.658988,24.8008435 L145.757439,24.8008435 L146.417636,22.2276655 L150.277476,9.09740691 L154.764213,9.09740691 L147.736583,29.023502 C146.285886,32.9163513 144.173978,34.3679173 141.039777,34.3679173 C139.88501,34.3679173 138.763543,34.1700028 137.806835,33.7410192 L138.169654,30.6731273 C138.895437,31.0360912 139.588355,31.1679859 140.313994,31.1679859 C141.73255,31.1679859 142.788142,30.6731273 143.546935,28.9904922" id="Fill-6" fill="#49504E"></path>
                <g id="Group-10">
                    <path d="M27.7969244,8.94220257 L26.1252925,8.17081381 L26.1252925,4.9426503 L17.7019821,3.05167647 L17.7018373,3.05167647 L9.27838213,4.9426503 L9.27838213,8.17081381 L3.03227593,11.0535318 C2.97363996,11.6177402 2.91891306,12.3435232 2.89444521,13.1915006 C2.85853972,14.440664 2.89212872,15.962014 3.08280421,17.6573898 C4.42375817,17.1141746 5.88849917,16.8121632 7.4246168,16.8121632 C8.86271825,16.8121632 10.2385642,17.0766766 11.5087207,17.5563333 C13.5557675,18.3296042 15.3270082,19.6650565 16.6317671,21.3762133 C16.9834381,21.3394392 17.3403212,21.3198938 17.7018373,21.3198938 C19.5972994,21.3198938 21.3696982,21.8411025 22.8884422,22.7446755 C23.264002,22.9683609 23.6247942,23.2141976 23.9671993,23.4827648 C25.2217195,22.7503219 26.6798006,22.3287221 28.2373457,22.3287221 C29.3046651,22.3287221 30.3252206,22.5277948 31.2661469,22.8875736 C31.4285903,22.3400149 31.5775691,21.786086 31.709319,21.2239046 C32.0230576,19.884688 32.2247364,18.6004879 32.3495369,17.4048932 C32.6344643,14.6726018 32.5121251,12.4096877 32.3709644,11.053387 L27.7969244,8.94220257" id="Fill-7" fill="#FFFFFF"></path>
                    <path d="M32.3495369,17.4048932 C32.2247364,18.6004879 32.0230576,19.884688 31.709319,21.2239046 C31.5775691,21.786086 31.4285903,22.3400149 31.2661469,22.8875736 C30.3252206,22.5277948 29.3046651,22.3287221 28.2373457,22.3287221 C26.6798006,22.3287221 25.2217195,22.7503219 23.9671993,23.4827648 C23.6247942,23.2141976 23.264002,22.9683609 22.8884422,22.7446755 C21.3696982,21.8411025 19.5972994,21.3198938 17.7018373,21.3198938 C17.3403212,21.3198938 16.9834381,21.3394392 16.6317671,21.3762133 C15.3270082,19.6650565 13.5557675,18.3296042 11.5087207,17.5563333 C10.2385642,17.0766766 8.86271825,16.8121632 7.4246168,16.8121632 C5.88849917,16.8121632 4.42375817,17.1141746 3.08280421,17.6573898 C2.89212872,15.962014 2.85853972,14.440664 2.89444521,13.1915006 C2.91891306,12.3435232 2.97363996,11.6177402 3.03227593,11.0535318 L9.27838213,8.17081381 L9.27838213,4.9426503 L17.7018373,3.05167647 L17.7019821,3.05167647 L26.1252925,4.9426503 L26.1252925,8.17081381 L32.3709644,11.053387 C32.5121251,12.4096877 32.6344643,14.6726018 32.3495369,17.4048932 M29.0026537,6.32978914 L29.0026537,2.63977688 L17.7019821,0.102938703 L17.7018373,0.102938703 L6.40102098,2.63977688 L6.40102098,6.32978914 L0.404660582,9.09726213 C0.404660582,9.09726213 -0.0496595991,11.2801128 0.00448818534,14.6379993 C0.0263499914,15.9912596 0.131460397,17.5356297 0.381495754,19.2048003 C0.59620475,20.6382688 0.918485414,22.1633831 1.38800751,23.7397496 C3.12421134,29.5691785 6.87633429,36.0889192 14.6613089,41.1928546 C15.6139625,41.8174363 16.6246729,42.4214592 17.7018373,42.9997112 L17.7019821,42.9995664 C18.7784227,42.4217487 19.7884092,41.8181602 20.7403388,41.1941577 C27.2257666,36.9426879 30.9115803,31.709319 32.9655766,26.7100597 C33.2829347,25.9380918 33.56265,25.1716255 33.806315,24.4152939 C34.4484151,22.4226844 34.8494562,20.501162 35.0892121,18.73079 C35.8438064,13.1615311 34.9988693,9.09726213 34.9988693,9.09726213 L29.0026537,6.32978914" id="Fill-9" fill="#006087"></path>
                </g>
                <path d="M11.5087207,17.5563333 C12.5107443,17.0315051 13.6500194,16.733258 14.859513,16.733258 C15.7853822,16.733258 16.6696995,16.9090211 17.4833641,17.2259449 C18.7297766,15.6600026 20.4962394,14.5942757 22.492758,14.3461225 C21.1464472,13.5722725 19.43225,13.1081072 17.564441,13.1081072 C17.3148399,13.1081072 17.0685689,13.1172284 16.8249038,13.133299 C15.4048999,11.5224748 13.4047618,10.5174108 11.1868744,10.5174108 C8.8828427,10.5174108 6.81292057,11.6009457 5.38524329,13.3225267 C4.89661021,13.1833929 4.3826406,13.1041982 3.84927044,13.1041982 C3.52308071,13.1041982 3.20543302,13.1380767 2.89444521,13.1915006 C2.85853972,14.440664 2.89212872,15.962014 3.08280421,17.6573898 C4.42375817,17.1141746 5.88849917,16.8121632 7.4246168,16.8121632 C8.86271825,16.8121632 10.2385642,17.0766766 11.5087207,17.5563333" id="Fill-11" fill="#54BBD1"></path>
                <path d="M29.7917056,17.0703062 C29.5877104,17.0703062 29.3861764,17.0778348 29.1865245,17.089562 C27.7591368,15.3713109 25.690952,14.2902374 23.3893816,14.2902374 C23.0860672,14.2902374 22.7870961,14.3094931 22.492758,14.3461225 C20.4962394,14.5942757 18.7297766,15.6600026 17.4833641,17.2259449 C16.6696995,16.9090211 15.7853822,16.733258 14.859513,16.733258 C13.6500194,16.733258 12.5107443,17.0315051 11.5087207,17.5563333 C13.5557675,18.3296042 15.3270082,19.6650565 16.6317671,21.3762133 C16.9834381,21.3394392 17.3403212,21.3198938 17.7016926,21.3198938 C19.5972994,21.3198938 21.3696982,21.8411025 22.8884422,22.7448203 C23.264002,22.9683609 23.6247942,23.2141976 23.9671993,23.4827648 C25.2217195,22.7503219 26.6798006,22.3287221 28.2373457,22.3287221 C29.3046651,22.3287221 30.3252206,22.5277948 31.2661469,22.8875736 C31.4285903,22.3400149 31.5775691,21.786086 31.709319,21.2239046 C32.0230576,19.884688 32.2247364,18.6004879 32.3495369,17.4048932 C31.5548386,17.1894603 30.693107,17.0703062 29.7917056,17.0703062" id="Fill-12" fill="#0090AC"></path>
                <path d="M32.3495369,17.4048932 C31.5548386,17.1894603 30.693107,17.0703062 29.7917056,17.0703062 C29.5877104,17.0703062 29.3861764,17.0778348 29.1865245,17.089562 C27.7591368,15.3713109 25.690952,14.2902374 23.3893816,14.2902374 C23.0860672,14.2902374 22.7870961,14.3094931 22.492758,14.3461225 C20.6103262,14.5800873 18.932324,15.5408485 17.7019821,16.962445 C18.932324,15.5408485 20.6103262,14.5800873 22.492758,14.3461225 C21.1796019,13.5913835 19.5163672,13.1311273 17.7019821,13.1088311 L17.7019821,3.05167647 L26.1252925,4.9426503 L26.1252925,8.17081381 L32.3709644,11.053387 C32.44958,11.8084156 32.5222597,12.8443178 32.5222597,14.085663 C32.5221149,15.0743668 32.4757852,16.1935175 32.3495369,17.4048932" id="Fill-13" fill="#C9CBCB"></path>
                <path d="M17.7019821,42.9995664 L17.7019821,21.3198938 C19.5974441,21.3200386 21.369843,21.8411025 22.8884422,22.7448203 C23.264002,22.9683609 23.6247942,23.2141976 23.9671993,23.4827648 C25.2217195,22.7503219 26.6798006,22.3287221 28.2373457,22.3287221 C29.3046651,22.3287221 30.3252206,22.5277948 31.2661469,22.8875736 C31.4285903,22.3400149 31.5775691,21.786086 31.709319,21.2239046 C32.0230576,19.884688 32.2247364,18.6004879 32.3495369,17.4048932 C32.4757852,16.1935175 32.5221149,15.0743668 32.5222597,14.085663 C32.5222597,12.8443178 32.44958,11.8084156 32.3709644,11.053387 L26.1252925,8.17081381 L26.1252925,4.9426503 L17.7019821,3.05167647 L17.7019821,0.102938703 L29.0026537,2.63977688 L29.0026537,6.32978914 L34.9988693,9.09726213 C34.9988693,9.09726213 35.402806,11.040212 35.4026612,14.0800165 C35.4026612,15.4367515 35.3221634,17.0121046 35.0892121,18.73079 C34.8494562,20.501162 34.4484151,22.4226844 33.806315,24.4152939 C33.56265,25.1716255 33.2829347,25.9380918 32.9655766,26.7100597 C30.9115803,31.709319 27.2257666,36.9426879 20.7403388,41.1941577 C19.7884092,41.8181602 18.7784227,42.4217487 17.7019821,42.9995664" id="Fill-14" fill="#276180"></path>
                <path d="M17.7019821,16.962445 L17.7019821,13.1088311 C19.5163672,13.1311273 21.1796019,13.5913835 22.492758,14.3461225 C20.6103262,14.5800873 18.932324,15.5408485 17.7019821,16.962445" id="Fill-15" fill="#62A4B3"></path>
                <path d="M23.9671993,23.4827648 C23.6247942,23.2141976 23.264002,22.9683609 22.8884422,22.7448203 C21.369843,21.8411025 19.5974441,21.3200386 17.7019821,21.3198938 L17.7019821,16.962445 C18.932324,15.5408485 20.6103262,14.5800873 22.492758,14.3461225 C22.7870961,14.3094931 23.0860672,14.2902374 23.3893816,14.2902374 C25.690952,14.2902374 27.7591368,15.3713109 29.1865245,17.089562 C29.3861764,17.0778348 29.5877104,17.0703062 29.7917056,17.0703062 C30.693107,17.0703062 31.5548386,17.1894603 32.3495369,17.4048932 C32.2247364,18.6004879 32.0230576,19.884688 31.709319,21.2239046 C31.5775691,21.786086 31.4285903,22.3400149 31.2661469,22.8875736 C30.3252206,22.5277948 29.3046651,22.3287221 28.2373457,22.3287221 C26.6798006,22.3287221 25.2217195,22.7503219 23.9671993,23.4827648" id="Fill-16" fill="#40879C"></path>
            </g>
        </g>
    </g>
</svg>