<svg id="Layer_1" data-name="Layer 1" xmlns="http://www.w3.org/2000/svg" viewBox="0 0 1068.96 296.29"><defs><style>.cls-1{fill:#fff;}.cls-2{fill:#0065a1;}.cls-3{fill:#4ec1e0;}.cls-4{fill:#009abf;}.cls-5{fill:none;}.cls-6{fill:#103b47;opacity:0.15;}</style></defs><title>logo-reversed</title><path class="cls-1" d="M355.28,184.72l-.68-.23c-8.43,10.71-22.33,17.09-38.74,17.09-25.52,0-42.38-14.13-42.38-44.66,0-25.75,17.32-42.38,49.22-42.38a94.78,94.78,0,0,1,28.48,4.33V108.61c0-17.09-8.2-23.93-28.71-23.93-14.81,0-25.52,2.28-38.05,7.75l-2.51-23.93q20.16-8.89,45.8-8.89c38.28,0,52.18,16.41,52.18,53.32V199.3h-22.1Zm-4.1-45.8c-3.42-1.6-11.85-3.87-23.24-3.87-18.68,0-27.12,7.52-27.12,21.42,0,16,9.57,21.65,23,21.65,14.35,0,27.34-9.11,27.34-19.14Z"/><path class="cls-1" d="M401.77,199.3V63L425,61.67l2.51,25.75h.68c8.43-17.77,22.56-27.34,39.42-27.34A50.05,50.05,0,0,1,482,61.9l-1.82,29.39A48.57,48.57,0,0,0,465.8,89c-19.82,0-35.09,15.49-35.09,41.24v69Z"/><path class="cls-1" d="M653.1,199.3V110.21c0-16.41-9.11-23.93-24.15-23.93-13.22,0-23.24,7.29-23.24,22.33V199.3H576.77V108.61c0-16.18-9.57-22.56-23.24-22.56-9.8,0-19.6,5-24.38,12.53V199.3H500.2V62.81l20.73-1.37,5,13.67a49.74,49.74,0,0,1,35.32-15.27c17.77,0,29.62,6.38,36.69,19.6,8.66-13.44,22.33-19.6,38.74-19.6,26.66,0,45.35,16.41,45.35,49.9V199.3Z"/><path class="cls-1" d="M762.93,202.49c-42.38,0-61.52-20.51-61.52-71.32,0-50.58,19.14-71.55,61.52-71.55,42.61,0,60.84,21,60.84,71.55C823.77,182,805.54,202.49,762.93,202.49Zm0-24.38c22.56,0,31-10.94,31-46.94s-8.43-46.94-31-46.94c-22.79,0-31.44,10.94-31.44,46.94S740.37,178.11,762.93,178.11Z"/><path class="cls-1" d="M845.19,199.3V63l23.24-1.37,2.51,25.75h.68c8.43-17.77,22.56-27.34,39.42-27.34A50.05,50.05,0,0,1,925.4,61.9l-1.82,29.39A48.57,48.57,0,0,0,909.22,89c-19.82,0-35.09,15.49-35.09,41.24v69Z"/><path class="cls-1" d="M991.48,199.53l.68-2.05L932.69,62.13H966l34,91.15,6.15,17.32h.68l4.56-17.77L1038,62.13h31l-48.53,137.63c-10,26.89-24.61,36.91-46.26,36.91a55,55,0,0,1-22.33-4.33l2.51-21.19a32,32,0,0,0,14.81,3.42C978.95,214.57,986.24,211.15,991.48,199.53Z"/><path class="cls-1" d="M192,61.05l-11.55-5.33V33.43L122.27,20.37h0L64.09,33.43v22.3L52.54,61.05,20.94,75.64c-.41,3.9-.78,8.91-1,14.77a220.67,220.67,0,0,0,1.3,30.85,79.89,79.89,0,0,1,93.58,25.69,71,71,0,0,1,7.39-.39,69.82,69.82,0,0,1,35.82,9.84,70.62,70.62,0,0,1,7.45,5.1A58.58,58.58,0,0,1,216,157.37c1.12-3.78,2.15-7.61,3.06-11.49a212.14,212.14,0,0,0,4.42-26.38,215.08,215.08,0,0,0,.15-43.87Z"/><path class="cls-2" d="M200.32,43V17.52L122.27,0h0L44.21,17.52V43L2.79,62.13S-.34,77.2,0,100.4a239.46,239.46,0,0,0,2.6,31.54,228.23,228.23,0,0,0,7,31.32c12,40.26,37.91,85.3,91.68,120.55,6.58,4.31,13.56,8.49,21,12.48h0c7.43-4,14.41-8.16,21-12.47,44.79-29.36,70.25-65.51,84.44-100q3.29-8,5.81-15.85a227.84,227.84,0,0,0,8.86-39.26c5.21-38.47-.62-66.54-.62-66.54Zm23.12,76.5A212.14,212.14,0,0,1,219,145.88c-.91,3.88-1.94,7.71-3.06,11.49a58.58,58.58,0,0,0-50.41,4.11,70.62,70.62,0,0,0-7.45-5.1,69.82,69.82,0,0,0-35.82-9.84,71,71,0,0,0-7.39.39,79.92,79.92,0,0,0-93.58-25.69A220.67,220.67,0,0,1,20,90.4c.17-5.86.55-10.87,1-14.77l31.6-14.58,11.55-5.33V33.43l58.18-13.06h0l58.18,13.06v22.3L192,61.05l31.59,14.58A215.08,215.08,0,0,1,223.44,119.51Z"/><path class="cls-3" d="M79.49,120.55a49.95,49.95,0,0,1,41.27-2.28,52.65,52.65,0,0,1,34.6-19.89c-9.3-5.34-21.14-8.55-34-8.55-1.72,0-3.43.06-5.11.18C106.4,78.88,92.59,71.93,77.27,71.93c-15.91,0-30.21,7.48-40.07,19.38A38.66,38.66,0,0,0,26.59,89.8a38.81,38.81,0,0,0-6.59.6,220.66,220.66,0,0,0,1.3,30.85,80,80,0,0,1,58.2-.7Z"/><path class="cls-4" d="M205.77,117.19c-1.41,0-2.8.05-4.18.13-9.86-11.87-24.14-19.34-40-19.34a50.19,50.19,0,0,0-6.19.39,52.65,52.65,0,0,0-34.6,19.89,49.95,49.95,0,0,0-41.27,2.28,80.17,80.17,0,0,1,35.38,26.38,71,71,0,0,1,7.39-.39,69.82,69.82,0,0,1,35.82,9.84,70.61,70.61,0,0,1,7.45,5.1A58.58,58.58,0,0,1,216,157.37c1.12-3.78,2.15-7.61,3.06-11.49a212.15,212.15,0,0,0,4.42-26.38A67.58,67.58,0,0,0,205.77,117.19Z"/><path class="cls-5" d="M192,61.05l-11.55-5.33V33.43L122.27,20.37h0L64.09,33.43v22.3L52.54,61.05,20.94,75.64c-.41,3.9-.78,8.91-1,14.77a220.67,220.67,0,0,0,1.3,30.85,79.89,79.89,0,0,1,93.58,25.69,71,71,0,0,1,7.39-.39,69.82,69.82,0,0,1,35.82,9.84,70.62,70.62,0,0,1,7.45,5.1A58.58,58.58,0,0,1,216,157.37c1.12-3.78,2.15-7.61,3.06-11.49a212.14,212.14,0,0,0,4.42-26.38,215.08,215.08,0,0,0,.15-43.87Z"/><path class="cls-6" d="M241.74,62.13,200.32,43V17.52L122.27,0V296.29c7.43-4,14.41-8.16,21-12.47,44.79-29.36,70.25-65.51,84.44-100q3.29-8,5.81-15.85a227.84,227.84,0,0,0,8.86-39.26C247.57,90.2,241.74,62.13,241.74,62.13Z"/></svg>